<svg id="Layer_2" data-name="Layer 2" xmlns="http://www.w3.org/2000/svg"
  width="818.32"
  height="311.83"
  viewBox="0 0 818.32 311.83"
  transform-style="preserve-3d"
>
  <defs>

    <pattern id="diagonalHatch" patternUnits="userSpaceOnUse" width="4" height="4">
        <!-- background -->
        <path id="background"
            d="M-1,3 L3,-1
               M1,5 L5,1" style="stroke:#ffff; stroke-width:10" />
        <!-- hatches -->
        <path id="hatches"
            d="M-2,2 L2,-2
               M0,4 L4,0
               M2,6 L6,2" style="stroke:#eeee; stroke-width:1" />
    </pattern>

    <pattern id="stripes" viewBox="0,0,8,8" width="16" height="16" patternUnits="userSpaceOnUse">
      <polygon points="0,0 4,0 0,4" fill="yellow"></polygon>
      <polygon points="0,8 8,0 8,4 4,8" fill="yellow"></polygon>
      <polygon points="0,4 0,8 8,0 4,0" fill="green"></polygon>
      <polygon points="4,8 8,8 8,4" fill="green"></polygon>
    </pattern>

    <filter id="glow" x="-30%" y="-30%" width="160%" height="160%">
      <feGaussianBlur stdDeviation="1 1" result="glow"/>
      <feMerge>
        <feMergeNode in="glow" />
      </feMerge>
    </filter>

    <style>
      .cls-1 {
        fill: none;
      }

      .cls-2 {
        fill: url(#diagonalHatch);
      }

      .cls-2 {
        stroke: #bbb;
        stroke-linecap: round;
        stroke-linejoin: round;
        stroke-width: 1px;
      }

      .cls-3 {
        font-size: 12px;
        fill: #777;
        font-family: MyriadPro-Regular, Myriad Pro;
        <!-- text-shadow: #302f2f 0px 0px 3px; -->
        <!-- filter: url(#glow); -->
      }

      .wishlist polygon {
        stroke: yellow;
        stroke-width: 10px;
        transform: TranslateZ(10px);

      }
    </style>

  </defs>

  <rect id="frame" class="cls-1" width="818.32" height="311.83" />

  <g id="S01">
    <polygon id="outline" class="cls-2" points="106.22 222.96 98.52 230.38 97.8 272.13 105.39 279.72 315.18 283.67 316.18 226.79 106.22 222.96"/>
    <text id="txt" class="cls-3" transform="translate(197.76 256.84)">1</text>
  </g>
  <g id="S02" class="wishslist">
    <polygon id="outline-2" data-name="outline" class="cls-2" points="350.93 284.38 315.18 283.67 316.18 226.79 326.82 216.7 352.35 217.24 350.93 284.38"/>
    <text id="txt-2" data-name="txt" class="cls-3" transform="translate(330.69 254.06)">2</text>
  </g>
  <g id="S03">
    <polygon id="S03-2" data-name="S03" class="cls-2" points="389.97 217.99 352.35 217.24 350.93 284.38 388.73 285.08 389.97 217.99"/>
    <text class="cls-3" transform="translate(367.37 254.68)">3</text>
  </g>
  <g id="S04">
    <polygon id="S04-2" data-name="S04" class="cls-2" points="427.94 218.64 389.97 217.99 388.73 285.08 426.53 285.78 427.94 218.64"/>
    <text class="cls-3" transform="translate(405.26 255.41)">4</text>
  </g>
  <g id="S05">
    <polygon id="S05-2" data-name="S05" class="cls-2" points="465.74 219.28 427.94 218.64 426.53 285.78 464.39 286.37 465.74 219.28"/>
    <text class="cls-3" transform="translate(443.06 256.03)">5</text>
  </g>
  <g id="S06">
    <polygon id="S06-2" data-name="S06" class="cls-2" points="492.96 219.9 465.74 219.28 464.39 286.37 502.13 287.18 503.16 230.48 492.96 219.9"/>
    <text class="cls-3" transform="translate(480.7 256.75)">6</text>
  </g>
  <g id="S07">
    <polygon id="S07-2" data-name="S07" class="cls-2" points="552.49 231.34 503.16 230.48 502.13 287.18 551.27 288.09 552.49 231.34"/>
    <text class="cls-3" transform="translate(524.23 262.81)">7</text>
  </g>
  <g id="S09">
    <polygon id="S09-2" data-name="S09" class="cls-2" points="601.45 232.3 552.49 231.34 551.27 288.09 600.41 289 601.45 232.3"/>
    <text class="cls-3" transform="translate(573.28 263.69)">9</text>
  </g>
  <g id="S11">
    <polygon id="S11-2" data-name="S11" class="cls-2" points="650.39 233.21 601.45 232.3 600.41 289 649.51 289.86 650.39 233.21"/>
    <text class="cls-3" transform="translate(619.24 264.6)">11</text>
  </g>
  <g id="S13">
    <polygon id="S13-2" data-name="S13" class="cls-2" points="709.18 234.29 656.23 233.26 655.07 289.9 708.08 290.82 709.18 234.29"/>
    <text class="cls-3" transform="translate(675.97 265.56)">13</text>
  </g>
  <g id="S15">
    <polygon id="S15-2" data-name="S15" class="cls-2" points="749.08 225.53 739.58 234.8 709.18 234.29 708.08 290.82 761.05 291.97 762.03 238.96 749.08 225.53"/>
    <text class="cls-3" transform="translate(728.9 262.27)">15</text>
  </g>
  <g id="S17">
    <polygon id="S17-2" data-name="S17" class="cls-2" points="753.84 220.94 749.08 225.53 762.03 238.96 761.05 291.97 797.89 292.65 799.2 221.78 753.84 220.94"/>
    <text class="cls-3" transform="translate(770.74 260.32)">17</text>
  </g>
  <g id="S18">
    <polygon id="S18-2" data-name="S18" class="cls-2" points="754.77 180.26 753.84 220.94 799.2 221.78 799.95 181.15 754.77 180.26"/>
    <text class="cls-3" transform="translate(770.74 204.54)">18</text>
  </g>
  <g id="S19">
    <polygon id="S19-2" data-name="S19" class="cls-2" points="800.65 143.35 755.29 142.51 754.77 180.26 799.95 181.15 800.65 143.35"/>
    <text class="cls-3" transform="translate(771.55 165.35)">19</text>
  </g>
  <g id="S20">
    <polygon id="S20-2" data-name="S20" class="cls-2" points="801.41 105.44 756.05 104.6 755.29 142.51 800.65 143.35 801.41 105.44"/>
    <text class="cls-3" transform="translate(772.2 127.5)">20</text>
  </g>
  <g id="S21">
    <polygon id="S21-2" data-name="S21" class="cls-2" points="750.77 39.72 749.7 96.98 756.13 97.15 756.05 104.6 801.41 105.44 802.73 40.64 750.77 39.72"/>
    <text class="cls-3" transform="translate(770.06 76.1)">21</text>
  </g>
  <g id="S22">
    <polygon id="S22-2" data-name="S22" class="cls-2" points="712.8 39.1 711.85 96.1 749.7 96.98 750.77 39.72 712.8 39.1"/>
    <text class="cls-3" transform="translate(725.16 71.56)">22</text>
  </g>
  <g id="S23">
    <polygon id="S23-2" data-name="S23" class="cls-2" points="675 38.44 673.99 95.52 711.85 96.1 712.8 39.1 675 38.44"/>
    <text class="cls-3" transform="translate(687.24 70.79)">23</text>
  </g>
  <g id="S24">
    <polygon id="S24-2" data-name="S24" class="cls-2" points="637.38 37.72 636.13 94.93 673.99 95.52 675 38.44 637.38 37.72"/>
    <text class="cls-3" transform="translate(649.41 70.14)">24</text>
  </g>
  <g id="S25">
    <polygon id="S25-2" data-name="S25" class="cls-2" points="599.4 37.1 598.5 94.18 636.13 94.93 637.38 37.72 599.4 37.1"/>
    <text class="cls-3" transform="translate(611.78 69.54)">25</text>
  </g>
  <g id="S26">
    <polygon id="S26-2" data-name="S26" class="cls-2" points="561.6 36.44 560.71 93.48 598.5 94.18 599.4 37.1 561.6 36.44"/>
    <text class="cls-3" transform="translate(573.9 68.83)">26</text>
  </g>
  <g id="S27">
    <polygon id="S27-2" data-name="S27" class="cls-2" points="523.8 35.77 522.73 92.83 560.71 93.48 561.6 36.44 523.8 35.77"/>
    <text class="cls-3" transform="translate(536.01 68.15)">27</text>
  </g>
  <g id="S28">
    <polygon id="S28-2" data-name="S28" class="cls-2" points="486 35.1 484.67 103.3 491.5 103.54 491.4 99.81 499.16 92.28 522.73 92.83 523.8 35.77 486 35.1"/>
    <text class="cls-3" transform="translate(498.08 72.84)">28</text>
  </g>
  <g id="S29">
    <polygon id="S29-2" data-name="S29" class="cls-2" points="448.06 34.32 446.92 102.77 484.67 103.3 486 35.1 448.06 34.32"/>
    <text class="cls-3" transform="translate(460.3 72.33)">29</text>
  </g>
  <g id="S33">
    <polygon id="S33-2" data-name="S33" class="cls-2" points="295.11 31.7 293.98 92.38 325.15 92.95 333.52 100.67 334.98 32.36 295.11 31.7"/>
    <text class="cls-3" transform="translate(308.32 69.71)">33</text>
  </g>
  <g id="S34">
    <polygon id="S34-2" data-name="S34" class="cls-2" points="255.6 30.94 254.46 91.59 293.98 92.38 295.11 31.7 255.6 30.94"/>
    <text class="cls-3" transform="translate(268.63 65.18)">34</text>
  </g>
  <g id="S30">
    <polygon id="S30-2" data-name="S30" class="cls-2" points="410.58 33.71 409.18 101.96 446.92 102.77 448.06 34.32 410.58 33.71"/>
    <text class="cls-3" transform="translate(422.46 71.76)">30</text>
  </g>
  <g id="S31">
    <polygon id="S31-2" data-name="S31" class="cls-2" points="372.78 33.03 371.32 101.37 409.18 101.96 410.58 33.71 372.78 33.03"/>
    <text class="cls-3" transform="translate(384.79 71.02)">31</text>
  </g>
  <g id="S32">
    <polygon id="S32-2" data-name="S32" class="cls-2" points="334.98 32.36 333.52 100.67 371.32 101.37 372.78 33.03 334.98 32.36"/>
    <text class="cls-3" transform="translate(346.99 70.39)">32</text>
  </g>
  <g id="S35">
    <polygon id="S35-2" data-name="S35" class="cls-2" points="215.86 30.05 214.72 90.68 254.46 91.59 255.6 30.94 215.86 30.05"/>
    <text class="cls-3" transform="translate(229.01 64.34)">35</text>
  </g>
  <g id="S36">
    <polygon id="S36-2" data-name="S36" class="cls-2" points="176.22 29.52 174.86 90 214.72 90.68 215.86 30.05 176.22 29.52"/>
    <text class="cls-3" transform="translate(189.2 63.62)">36</text>
  </g>
  <g id="S37">
    <polygon id="S37-2" data-name="S37" class="cls-2" points="136.36 28.86 135.17 89.27 174.86 90 176.22 29.52 136.36 28.86"/>
    <text class="cls-3" transform="translate(149.54 62.95)">37</text>
  </g>
  <g id="S38">
    <polygon id="S38-2" data-name="S38" class="cls-2" points="84.38 27.93 83.25 88.5 135.17 89.27 136.36 28.86 84.38 27.93"/>
    <text class="cls-3" transform="translate(103.65 62.12)">38</text>
  </g>
  <g id="S39">
    <polygon id="S39-2" data-name="S39" class="cls-2" points="39.7 27.02 32.16 87.56 83.25 88.5 84.38 27.93 39.7 27.02"/>
    <text class="cls-3" transform="translate(52.12 61.28)">39</text>
  </g>
  <g id="S43">
    <polygon id="S43-2" data-name="S43" class="cls-2" points="170.87 104.28 169.86 159.14 99.92 157.87 154.18 103.97 170.87 104.28"/>
    <text class="cls-3" transform="translate(143.89 135.08)">43</text>
  </g>
  <g id="S44">
    <polygon id="S44-2" data-name="S44" class="cls-2" points="206.71 159.81 207.9 104.91 170.87 104.28 169.86 159.14 206.71 159.81"/>
    <text class="cls-3" transform="translate(182.72 135.57)">44</text>
  </g>
  <g id="S42">
    <polygon id="S42-2" data-name="S42" class="cls-2" points="26.09 136.58 21.66 172.41 85.44 173.59 86.02 151.81 99.86 137.94 26.09 136.58"/>
    <text class="cls-3" transform="translate(54.6 158.61)">42</text>
  </g>
  <g id="S41">
    <polygon id="S41-2" data-name="S41" class="cls-2" points="139.08 98.98 73.57 97.66 72.88 137.44 99.86 137.94 139.08 98.98"/>
    <text class="cls-3" transform="translate(89.8 121.32)">41</text>
  </g>
  <g id="S40">
    <polygon id="S40-2" data-name="S40" class="cls-2" points="26.09 136.58 32.16 87.56 73.97 88.33 72.88 137.44 26.09 136.58"/>
    <text class="cls-3" transform="translate(43.88 116.02)">40</text>
  </g>
  <g id="S45">
    <polygon id="S45-2" data-name="S45" class="cls-2" points="244.58 105.64 207.9 104.91 206.71 159.81 243.74 160.37 244.58 105.64"/>
    <text class="cls-3" transform="translate(219.49 136.16)">45</text>
  </g>
  <g id="S46">
    <polygon id="S46-2" data-name="S46" class="cls-2" points="281.43 106.33 244.58 105.64 243.74 160.37 280.59 161.04 281.43 106.33"/>
    <text class="cls-3" transform="translate(256.43 136.86)">46</text>
  </g>
  <g id="S47">
    <polygon id="S47-2" data-name="S47" class="cls-2" points="310.89 106.82 281.43 106.33 280.59 161.04 317.26 161.83 318.13 114.57 310.89 106.82"/>
    <text class="cls-3" transform="translate(293.21 137.6)">47</text>
  </g>
  <g id="S48">
    <polygon id="S48-2" data-name="S48" class="cls-2" points="372.26 111.73 338.05 111.16 332.27 116.72 331.37 165.86 371.07 166.59 372.26 111.73"/>
    <text class="cls-3" transform="translate(345.65 142.4)">48</text>
  </g>
  <g id="S49">
    <polygon id="S49-2" data-name="S49" class="cls-2" points="411.77 112.52 372.26 111.73 371.07 166.59 410.93 167.28 411.77 112.52"/>
    <text class="cls-3" transform="translate(385.26 143.03)">49</text>
  </g>
  <g id="S53">
    <polygon id="S53-2" data-name="S53" class="cls-2" points="584.45 108.04 545.04 107.37 543.85 162.23 583.43 162.91 584.45 108.04"/>
    <text class="cls-3" transform="translate(557.99 138.66)">53</text>
  </g>
  <g id="S54">
    <polygon id="S54-2" data-name="S54" class="cls-2" points="623.85 108.83 584.45 108.04 583.43 162.91 622.84 163.64 623.85 108.83"/>
    <text class="cls-3" transform="translate(597.49 139.36)">54</text>
  </g>
  <g id="S52">
    <polygon id="S52-2" data-name="S52" class="cls-2" points="545.04 107.37 513.01 106.83 505.26 114.08 504.61 161.45 543.85 162.23 545.04 107.37"/>
    <text class="cls-3" transform="translate(518.67 138.05)">52</text>
  </g>
  <g id="S51">
    <polygon id="S51-2" data-name="S51" class="cls-2" points="485.59 113.66 451.46 113.25 450.57 167.84 490.07 168.62 491.03 119.66 485.59 113.66"/>
    <text class="cls-3" transform="translate(464.64 144.46)">51</text>
  </g>
  <g id="S50">
    <polygon id="S50-2" data-name="S50" class="cls-2" points="451.46 113.25 411.77 112.52 410.93 167.28 450.57 167.84 451.46 113.25"/>
    <text class="cls-3" transform="translate(425.04 143.7)">50</text>
  </g>
  <g id="S55">
    <polygon id="S55-2" data-name="S55" class="cls-2" points="663.26 109.56 623.85 108.83 622.84 163.64 662.25 164.3 663.26 109.56"/>
    <text class="cls-3" transform="translate(636.89 140.09)">55</text>
  </g>
  <g id="S56">
    <polygon id="S56-2" data-name="S56" class="cls-2" points="702.49 110.34 663.26 109.56 662.25 164.3 701.65 165.09 702.49 110.34"/>
    <text class="cls-3" transform="translate(676.21 140.85)">56</text>
  </g>
  <g id="S57">
    <polygon id="S57-2" data-name="S57" class="cls-2" points="734.13 110.92 702.49 110.34 701.65 165.09 740.85 165.82 741.73 118.57 734.13 110.92"/>
    <text class="cls-3" transform="translate(715.53 141.6)">57</text>
  </g>
  <g id="S58">
    <polygon id="S58-2" data-name="S58" class="cls-2" points="739.8 213.12 740.85 165.82 701.65 165.09 700.64 219.9 732.05 220.37 739.8 213.12"/>
    <text class="cls-3" transform="translate(714.59 196.25)">58</text>
  </g>
  <g id="S59">
    <polygon id="S59-2" data-name="S59" class="cls-2" points="661.06 219.22 662.25 164.3 701.65 165.09 700.64 219.9 661.06 219.22"/>
    <text class="cls-3" transform="translate(675.2 195.63)">59</text>
  </g>
  <g id="S63">
    <polygon id="S63-2" data-name="S63" class="cls-2" points="503.69 208.52 504.61 161.45 543.85 162.23 543.02 216.92 510.98 216.45 503.69 208.52"/>
    <text class="cls-3" transform="translate(517.61 192.71)">63</text>
  </g>
  <g id="S64">
    <polygon id="S64-2" data-name="S64" class="cls-2" points="436.71 204.62 437.39 167.84 490.07 168.62 489.58 198.09 482.05 205.46 436.71 204.62"/>
    <text class="cls-3" transform="translate(457.23 190.17)">64</text>
  </g>
  <g id="S62">
    <polygon id="S62-2" data-name="S62" class="cls-2" points="543.02 216.92 543.85 162.23 583.43 162.91 582.25 217.77 543.02 216.92"/>
    <text class="cls-3" transform="translate(557.07 193.52)">62</text>
  </g>
  <g id="S61">
    <polygon id="S61-2" data-name="S61" class="cls-2" points="582.25 217.77 583.43 162.91 622.84 163.64 621.65 218.5 582.25 217.77"/>
    <text class="cls-3" transform="translate(596.39 194.22)">61</text>
  </g>
  <g id="S60">
    <polygon id="S60-2" data-name="S60" class="cls-2" points="621.65 218.5 622.84 163.64 662.25 164.3 661.06 219.22 621.65 218.5"/>
    <text class="cls-3" transform="translate(635.79 194.95)">60</text>
  </g>
  <g id="S65">
    <polygon id="S65-2" data-name="S65" class="cls-2" points="383.62 203.69 384.25 166.72 437.39 167.84 436.71 204.62 383.62 203.69"/>
    <text class="cls-3" transform="translate(404.35 189.19)">65</text>
  </g>
  <g id="S66">
    <polygon id="S66-2" data-name="S66" class="cls-2" points="331 195.1 331.37 165.86 384.25 166.72 383.62 203.69 338.19 202.68 331 195.1"/>
    <text class="cls-3" transform="translate(351.47 188.3)">66</text>
  </g>
  <g id="S67">
    <polygon id="S67-2" data-name="S67" class="cls-2" points="272.86 212.04 273.74 160.92 317.26 161.83 316.46 205.28 308.93 212.65 272.86 212.04"/>
    <text class="cls-3" transform="translate(288.91 190.31)">67</text>
  </g>
  <g id="S68">
    <polygon id="S68-2" data-name="S68" class="cls-2" points="229.39 211.24 230.51 160.37 273.74 160.92 272.86 212.04 229.39 211.24"/>
    <text class="cls-3" transform="translate(245.41 189.73)">68</text>
  </g>
  <g id="S69">
    <polygon id="S69-2" data-name="S69" class="cls-2" points="186.1 210.38 186.81 159.34 230.51 160.37 229.39 211.24 186.1 210.38"/>
    <text class="cls-3" transform="translate(202.15 188.81)">69</text>
  </g>
  <g id="S71">
    <polygon id="S71-2" data-name="S71" class="cls-2" points="99.11 201.26 99.92 157.87 143.57 158.44 142.46 209.63 106.53 208.96 99.11 201.26"/>
    <text class="cls-3" transform="translate(115.19 187.27)">71</text>
  </g>
  <g id="S70">
    <polygon id="S70-2" data-name="S70" class="cls-2" points="142.46 209.63 143.57 158.44 186.81 159.34 186.1 210.38 142.46 209.63"/>
    <text class="cls-3" transform="translate(158.48 187.93)">70</text>
  </g>
</svg>
